<svg width="39" height="40" viewBox="0 0 39 40" fill="none" xmlns="http://www.w3.org/2000/svg">
<path d="M38.4165 24.2199C35.8119 34.6676 25.2301 41.0259 14.7811 38.4205C4.33653 35.8159 -2.02174 25.2334 0.584062 14.7865C3.18758 4.33766 13.7694 -2.02109 24.2151 0.583573C34.6633 3.18823 41.0212 13.7719 38.4163 24.2201L38.4165 24.2199H38.4165Z" fill="#F3BA2F"/>
<path fill-rule="evenodd" clip-rule="evenodd" d="M19.5019 12.3772L14.4519 17.4271L14.452 17.4269L11.5138 14.4886L19.5019 6.50049L27.4926 14.491L24.5543 17.4293L19.5019 12.3772ZM9.43892 16.5631L6.50049 19.5019L9.43872 22.4398L12.3772 19.5013L9.43892 16.5631ZM14.4519 21.5771L19.5019 26.6268L24.5541 21.5747L27.494 24.5115L27.4926 24.5131L19.5019 32.5034L11.5138 24.5153L11.5096 24.5112L14.4519 21.5771ZM29.565 16.5648L26.6265 19.5032L29.5649 22.4414L32.5032 19.503L29.565 16.5648Z" fill="white"/>
<path d="M22.4828 19.5006H22.4841L19.5027 16.519L17.299 18.7221L17.0458 18.9754L16.5237 19.4976L16.5195 19.5017L16.5237 19.5059L19.5027 22.4854L22.4843 19.5038L22.4857 19.5021L22.483 19.5006" fill="white"/>
</svg>
