<svg width="43" height="42" viewBox="0 0 43 42" fill="none" xmlns="http://www.w3.org/2000/svg">
<g clip-path="url(#clip0_746_4393)">
<path d="M1.95181 41.3494H29.2771C30.3532 41.3494 31.2289 40.4798 31.2289 39.4111V29.7199C31.2289 29.707 31.2224 29.6966 31.2211 29.6837C31.2927 29.6385 31.3668 29.5958 31.4371 29.548L41.8285 39.8673C41.8885 39.9291 41.9602 39.9784 42.0395 40.0123C42.1188 40.0463 42.2042 40.0643 42.2906 40.0651C42.3769 40.066 42.4626 40.0498 42.5426 40.0174C42.6226 39.985 42.6953 39.9371 42.7565 39.8766C42.8177 39.816 42.8661 39.7439 42.8989 39.6646C42.9317 39.5852 42.9483 39.5002 42.9477 39.4144C42.9471 39.3286 42.9292 39.2438 42.8953 39.1649C42.8613 39.0861 42.8118 39.0147 42.7498 38.955L32.4533 28.7301C33.2982 27.9472 33.9721 27.0002 34.4329 25.9479C34.8938 24.8956 35.132 23.7605 35.1325 22.613C35.1313 21.2029 34.7722 19.816 34.0886 18.5802C33.405 17.3444 32.4188 16.2995 31.2211 15.5422C31.2224 15.5293 31.2289 15.5189 31.2289 15.506V12.2756C31.2289 12.2536 31.2185 12.2355 31.2172 12.2149C31.2146 12.1852 31.2068 12.1593 31.2003 12.1309C31.1799 12.0411 31.1399 11.9569 31.0832 11.8841C31.0741 11.8724 31.0754 11.8582 31.0663 11.8466L20.6566 0.217084C20.6527 0.213208 20.6475 0.213208 20.6436 0.209331C20.5644 0.126704 20.4641 0.0668784 20.3534 0.0361807C20.3287 0.0284277 20.3066 0.0258434 20.2806 0.0219669C20.2428 0.015506 20.2077 0 20.1687 0H1.95181C0.875711 0 0 0.869629 0 1.93825V39.4111C0 40.4798 0.875711 41.3494 1.95181 41.3494ZM33.8313 22.613C33.8313 26.5321 30.6199 29.7199 26.6747 29.7199C22.7294 29.7199 19.5181 26.5321 19.5181 22.613C19.5181 18.6938 22.7294 15.506 26.6747 15.506C30.6199 15.506 33.8313 18.6938 33.8313 22.613ZM20.8193 2.34529L29.1301 11.6295H21.4699C21.1836 11.6295 20.8193 11.0868 20.8193 10.6604V2.34529ZM1.3012 1.93825C1.3012 1.7669 1.36975 1.60257 1.49176 1.4814C1.61377 1.36024 1.77926 1.29217 1.95181 1.29217H19.5181V10.6604C19.5181 11.7058 20.3704 12.9217 21.4699 12.9217H29.9277V14.8612C28.356 14.2084 26.622 14.044 24.9543 14.3898C23.2866 14.7356 21.7636 15.5753 20.5864 16.7982H7.15663C6.98408 16.7982 6.81859 16.8663 6.69658 16.9874C6.57457 17.1086 6.50602 17.2729 6.50602 17.4443C6.50602 17.6156 6.57457 17.78 6.69658 17.9011C6.81859 18.0223 6.98408 18.0904 7.15663 18.0904H19.5597C18.8056 19.2544 18.3557 20.5867 18.2507 21.9669H7.15663C6.98408 21.9669 6.81859 22.0349 6.69658 22.1561C6.57457 22.2773 6.50602 22.4416 6.50602 22.613C6.50602 22.7843 6.57457 22.9486 6.69658 23.0698C6.81859 23.191 6.98408 23.259 7.15663 23.259H18.2494C18.3551 24.639 18.8049 25.9713 19.5584 27.1355H7.15663C6.98408 27.1355 6.81859 27.2036 6.69658 27.3248C6.57457 27.4459 6.50602 27.6103 6.50602 27.7816C6.50602 27.953 6.57457 28.1173 6.69658 28.2385C6.81859 28.3596 6.98408 28.4277 7.15663 28.4277H20.494C20.5213 28.4277 20.5447 28.4161 20.572 28.4122C21.7489 29.6402 23.2736 30.4843 24.9443 30.8328C26.615 31.1812 28.3528 31.0175 29.9277 30.3634V39.4111C29.9277 39.5825 29.8592 39.7468 29.7372 39.868C29.6151 39.9892 29.4497 40.0572 29.2771 40.0572H1.95181C1.58747 40.0572 1.3012 39.7729 1.3012 39.4111V1.93825Z" fill="#333333"/>
<path d="M7.15646 12.9216H14.9637C15.1362 12.9216 15.3017 12.8535 15.4237 12.7323C15.5457 12.6112 15.6143 12.4468 15.6143 12.2755C15.6143 12.1041 15.5457 11.9398 15.4237 11.8186C15.3017 11.6975 15.1362 11.6294 14.9637 11.6294H7.15646C6.98391 11.6294 6.81843 11.6975 6.69642 11.8186C6.5744 11.9398 6.50586 12.1041 6.50586 12.2755C6.50586 12.4468 6.5744 12.6112 6.69642 12.7323C6.81843 12.8535 6.98391 12.9216 7.15646 12.9216Z" fill="#333333"/>
<path d="M7.15646 33.5964H24.0721C24.2447 33.5964 24.4102 33.5283 24.5322 33.4071C24.6542 33.286 24.7227 33.1216 24.7227 32.9503C24.7227 32.7789 24.6542 32.6146 24.5322 32.4934C24.4102 32.3723 24.2447 32.3042 24.0721 32.3042H7.15646C6.98391 32.3042 6.81843 32.3723 6.69642 32.4934C6.5744 32.6146 6.50586 32.7789 6.50586 32.9503C6.50586 33.1216 6.5744 33.286 6.69642 33.4071C6.81843 33.5283 6.98391 33.5964 7.15646 33.5964Z" fill="#333333"/>
</g>
<defs>
<clipPath id="clip0_746_4393">
<rect width="42.9398" height="41.3494" fill="white"/>
</clipPath>
</defs>
</svg>
